<?xml version="1.0" encoding="UTF-8"?> <svg xmlns="http://www.w3.org/2000/svg" width="322" height="52" viewBox="0 0 322 52" fill="none"> <path fill-rule="evenodd" clip-rule="evenodd" d="M288.73 35.41L321.91 1.91V45.23H319.73V7.45999L288.73 38.83V35.41ZM0 47.2H64.82V51.48H0V47.2ZM178 8.94H197.84V42.94H200.1V6.66998H175.73V41.29H173.53V4.47H202.33V45.18H195.66V11.18H178.02V8.98001L178 8.94ZM204.57 45.23H206.77V0H169.05V45.18H180.19V13.88H177.99V42.98H171.25V2.20001H204.59V45.2L204.57 45.23ZM115.31 6.56C111.44 2.49 106.47 0.100006 101.63 0.100006H82.73V2.41998L101.66 2.48999C107.66 2.48999 113.59 6.56 116.95 12.88C118.527 15.8903 119.366 19.2319 119.4 22.63C119.436 26.0295 118.617 29.3836 117.018 32.3839C115.42 35.3842 113.092 37.9344 110.25 39.8C107.76 41.6542 104.763 42.7012 101.66 42.8H85.03V6.56L101.11 6.62C105.83 6.62 110.41 9.72001 113.11 14.82C114.36 17.2345 115.018 19.9113 115.03 22.63C114.953 26.8181 113.271 30.8167 110.33 33.8C107.49 36.64 104.07 38.45 101.23 38.45H93.83L93.89 12.95H91.62L91.56 39.61V40.77H101.18C104.73 40.77 108.86 38.77 112.02 35.41C115.336 31.972 117.226 27.4056 117.31 22.63C117.269 17.8452 115.455 13.2455 112.22 9.72C108.67 6.17 104.79 4.23001 101.11 4.23001H82.73V45.16H101.63C106.28 45.16 111.31 42.77 115.11 38.71C119.258 34.398 121.591 28.6578 121.628 22.6749C121.666 16.692 119.404 10.9233 115.31 6.56ZM96.31 34.06H100.88C103.01 34.06 105.46 32.7 107.47 30.44C109.432 28.2754 110.568 25.489 110.68 22.57C110.688 20.6358 110.228 18.7283 109.34 17.01C107.53 13.59 103.79 11.01 100.88 11.01L89.37 11.07V40.9H87.03L86.97 8.81L100.88 8.75C103.001 8.77599 105.067 9.42642 106.82 10.62C108.72 11.9837 110.271 13.7769 111.346 15.8535C112.422 17.9301 112.992 20.2314 113.01 22.57C112.982 24.8334 112.38 27.0526 111.26 29.02C108.95 33.35 104.43 36.38 100.89 36.38H96.31V34.06ZM130.82 35.41L164.01 1.91V45.23H161.75V7.45999L130.82 38.83V35.41ZM126.41 0.0599976V45.25H130.54L157.33 18.39V42.92H155.27V23.73L152.88 26.18V45.23H159.66V12.69L130.09 42.64L129.83 42.9H128.73V2.29001H135.32V21.66L137.64 19.14V0.0599976H126.41ZM130.86 32.53L162.86 0.0599976H159.63L133.23 26.85V4.54999H130.9V32.55L130.86 32.53ZM270.44 42.92L266.31 33.7H246.31L243.02 41.24H245.86L248.12 35.84L264.97 35.91L269.1 45.25L280.98 45.18L260.62 0.0599976H256.49L236.29 45.18H248.87L251.07 40.02H263.92L262.92 37.82H249.62L247.55 42.92H239.87L257.75 2.25H259.3L277.25 42.92H270.44ZM256.17 28.02H253.65L258.56 16.2L265.66 31.89H246.94L258.56 5.81L274.44 41.19H271.79L258.56 11.06L250.73 29.86H262.16L258.61 22.11L256.22 28L256.17 28.02ZM288.77 32.53L320.73 0.0599976H317.5L291.09 26.85V4.54999H288.73V32.55L288.77 32.53ZM284.32 0.0599976V45.25H288.45L315.24 18.39V42.92H313.17V23.73L310.79 26.18V45.23H317.56V12.69L288 42.64L287.74 42.9H286.64V2.29001H293.23V21.66L295.55 19.14V0.0599976H284.32Z" fill="white"></path> </svg> 