<?xml version="1.0" encoding="UTF-8"?> <svg xmlns="http://www.w3.org/2000/svg" width="1564" height="380" viewBox="0 0 1564 380" fill="none"> <path d="M1490.89 73.3685L1485.82 73.6502L1486.24 77.6651C1487.37 88.9349 1489.98 94.7107 1495.33 97.8099C1500.12 100.627 1513.15 102.247 1522.81 101.191C1526.68 100.768 1531.4 99.8526 1533.37 99.2187C1537.88 97.6691 1542.95 92.6681 1544.22 88.4419C1545.07 85.4836 1546.48 74.1433 1546.05 73.7207C1545.84 73.5094 1537.39 73.3685 1534.71 73.5094C1534.22 73.5798 1533.8 75.6929 1533.58 79.0738C1533.02 89.0758 1530.41 90.8367 1516.11 90.8367C1505.19 90.8367 1502.3 89.9915 1499.91 86.1175C1498.85 84.2861 1498.5 82.5957 1498.5 78.299C1498.5 73.5798 1498.36 72.8754 1497.3 73.0163C1496.6 73.0867 1493.71 73.298 1490.89 73.3685Z" fill="white"></path> <path d="M630.557 117.25C619.426 118.8 610.761 125.069 605.829 135.282L603.434 140.142L603.223 184.024C603.082 212.34 603.293 229.315 603.786 231.921C605.406 240.866 612.663 250.868 619.778 254.038C627.316 257.349 629.289 257.63 650.635 257.912C667.402 258.194 672.334 258.053 677.759 257.137C688.467 255.235 696.076 250.234 700.866 241.782C705.586 233.611 705.445 235.02 705.727 191.068C706.009 156.272 705.868 150.426 704.882 145.073C701.923 129.013 692.624 119.927 676.913 117.532C669.798 116.476 637.673 116.264 630.557 117.25ZM678.111 130.14C682.972 131.69 687.128 135.493 689.524 140.353L691.496 144.368L691.708 183.742C691.849 209.452 691.637 224.877 691.144 228.047C689.876 236.288 684.944 241.993 676.702 244.811C674.588 245.586 668.882 245.797 653.453 245.797H633.023L628.796 243.825C623.301 241.289 620.483 238.401 618.44 233.541L616.819 229.597V186.63V143.664L618.44 140.494C621.751 134.226 625.837 131.056 632.671 129.506C638.8 128.098 673.461 128.591 678.111 130.14Z" fill="white"></path> <path d="M1338.93 117.251C1323.57 119.223 1313.01 129.436 1311.1 144.228C1310.33 150.356 1310.26 218.327 1311.03 227.977C1311.74 237.274 1314.77 243.473 1321.39 249.601C1329.28 256.856 1335.55 258.124 1362.18 258.124C1382.61 258.053 1389.09 257.278 1395.57 254.179C1400.5 251.784 1406.85 245.515 1409.31 240.655C1413.19 232.978 1413.26 232.414 1413.26 187.898C1413.26 160.71 1412.97 145.636 1412.48 143.171C1409.87 130.774 1400.86 121.336 1388.6 118.096C1384.16 116.969 1346.19 116.264 1338.93 117.251ZM1386.13 130.14C1390.92 131.69 1395.86 136.691 1397.76 141.762C1399.17 145.496 1399.24 146.693 1399.03 188.673L1398.81 231.71L1396.91 235.02C1394.38 239.317 1389.94 242.98 1385.5 244.529C1382.33 245.656 1379.3 245.797 1361.48 245.797C1341.89 245.727 1340.9 245.656 1336.96 244.107C1332.24 242.275 1328.43 238.683 1326.32 234.175C1324.91 231.076 1324.84 229.808 1324.49 191.561C1324.28 169.867 1324.35 149.863 1324.56 147.186C1324.84 143.101 1325.41 141.551 1327.52 138.241C1333.01 129.647 1337.24 128.52 1363.59 128.732C1379.16 128.873 1383.24 129.154 1386.13 130.14Z" fill="white"></path> <path d="M465.423 121.195C465.211 123.026 465 125.844 465 127.534V130.633L481.063 130.704C499.661 130.774 506.847 130.986 507.904 131.69C508.468 131.972 508.679 150.708 508.679 194.026V255.869L514.174 256.151C517.133 256.292 520.303 256.222 521.219 256.081L522.769 255.869V194.097C522.769 146.975 522.98 132.113 523.614 131.479C524.248 130.845 529.462 130.633 542.565 130.633C552.569 130.633 561.516 130.352 562.503 129.929C564.828 129.084 565.462 127.675 566.096 122.322L566.589 117.955H516.217H465.916L465.423 121.195Z" fill="white"></path> <path d="M767.794 118.448L760.185 118.73V187.264V255.799L765.892 256.222C769.062 256.433 772.091 256.433 772.584 256.222C773.43 255.94 773.571 247.417 773.641 206.423C773.711 149.37 773.993 132.042 774.839 131.197C775.12 130.915 790.479 130.704 808.866 130.774L842.259 130.986L842.682 135.916C842.964 138.593 843.175 166.697 843.246 198.323L843.316 255.799L847.05 256.292C849.022 256.504 852.052 256.715 853.743 256.715H856.772L856.561 187.476L856.349 118.307H815.841C793.578 118.237 771.95 118.378 767.794 118.448Z" fill="white"></path> <path d="M940.889 118.659C929.476 119.998 921.656 124.647 916.161 133.169C911.23 140.847 911.3 140.284 911.3 187.335C911.3 234.809 911.159 233.471 916.654 241.923C921.304 249.178 925.813 252.418 934.619 255.025C938.212 256.081 943.003 256.292 968.928 256.504C985.554 256.715 999.856 256.645 1000.63 256.433C1002.04 256.081 1002.18 255.518 1002.39 250.376C1002.53 247.277 1002.53 244.741 1002.39 244.67C1002.25 244.67 988.584 244.459 971.887 244.318C936.803 243.896 936.733 243.896 931.026 238.12C929.054 236.148 927.01 233.26 926.447 231.71C925.601 229.386 925.39 221.286 925.179 187.546L924.967 146.2L926.729 142.819C928.772 138.734 932.717 134.93 937.014 132.676C940.185 130.986 940.466 130.986 969.069 130.634C984.991 130.422 998.447 130 999.081 129.718C1002.11 128.239 1003.94 119.364 1001.41 118.378C999.856 117.814 946.102 118.026 940.889 118.659Z" fill="white"></path> <path d="M1030.43 118.448C1030.22 118.729 1030.01 121.547 1030.01 124.787V130.633H1042.9C1050.02 130.633 1059.74 130.845 1064.39 131.126L1072.98 131.549V193.815V256.01H1080.03H1087.07L1087.21 194.026C1087.43 143.171 1087.57 131.901 1088.34 131.408C1088.9 131.056 1097.57 130.774 1107.72 130.704C1128.29 130.563 1128.78 130.492 1129.98 125.914C1131.6 119.152 1131.6 118.87 1129.13 118.377C1126.31 117.814 1031 117.884 1030.43 118.448Z" fill="white"></path> <path d="M1174.43 118.448L1171.26 118.729V187.335V256.01H1178.09H1185L1185.14 232.907L1185.35 209.874L1213.53 209.522C1240.44 209.1 1241.85 209.029 1245.59 207.55C1253.9 204.239 1261.08 196.844 1263.9 188.743C1265.45 184.235 1265.66 182.545 1265.88 168.387C1266.02 159.371 1265.8 150.426 1265.31 146.975C1263.41 132.817 1255.52 123.66 1241.71 119.645C1238.05 118.589 1233.61 118.448 1207.54 118.307C1191.06 118.236 1176.19 118.307 1174.43 118.448ZM1240.58 133.099C1242.63 134.226 1245.51 136.55 1246.99 138.24C1251.5 143.312 1251.93 145.566 1251.93 164.091C1251.93 184.024 1251.43 186.137 1246.08 191.49C1239.95 197.548 1237.98 197.9 1209.66 197.9H1186.06L1185.63 195.787C1185.35 194.59 1185.14 179.868 1185.07 162.964C1185 139.367 1185.21 132.112 1185.84 131.478C1186.55 130.774 1192.54 130.633 1211.77 130.774L1236.78 130.985L1240.58 133.099Z" fill="white"></path> <path d="M1472.36 118.448L1467.64 118.73L1467.78 187.546L1467.85 256.363L1474.2 256.433C1477.72 256.504 1481.03 256.292 1481.66 256.011C1482.23 255.658 1483.57 254.179 1484.55 252.7C1486.88 249.178 1493.57 237.767 1493.57 237.345C1493.57 237.134 1494.98 234.668 1496.67 231.851C1498.36 229.104 1502.3 222.201 1505.55 216.566C1508.72 210.931 1514 201.915 1517.17 196.492C1534.71 166.697 1539.57 158.386 1543.52 151.06C1550.92 137.536 1551.62 137.677 1550.63 153.173C1550.28 159.16 1549.93 184.799 1549.93 210.086V256.081L1556.48 255.87L1562.96 255.658L1563.17 186.983L1563.31 118.307L1556.2 118.448C1551.34 118.518 1548.73 118.871 1548.1 119.505C1547.32 120.279 1538.66 135.071 1528.16 153.314C1524.43 160.006 1507.38 189.378 1502.16 198.253C1496.6 207.762 1484.83 228.47 1482.51 232.907C1481.94 234.034 1480.96 234.88 1480.39 234.88C1479.2 234.88 1479.2 234.034 1480.89 213.749C1481.24 209.311 1481.52 185.926 1481.52 161.766L1481.59 117.955L1479.34 118.096C1478.07 118.166 1474.9 118.307 1472.36 118.448Z" fill="white"></path> <path d="M177.957 0.493297C177.675 0.704607 177.463 5.98735 177.463 12.1858V23.3852L199.585 22.8921C221.495 22.3286 221.706 22.3991 222.481 23.8078C222.974 24.7939 223.256 32.0489 223.256 45.3614V65.5062H252.704C268.837 65.5062 283.772 65.7175 285.815 65.9288L289.479 66.4219V54.659V42.9665H268.062H246.645L246.152 27.9635C245.87 19.7929 245.729 10.0727 245.87 6.4804L246.152 0.000241436H212.266C193.667 0.000241436 178.168 0.211551 177.957 0.493297Z" fill="white"></path> <path d="M135.193 41.9098V75.3671H156.258H177.322L177.745 76.9168C177.956 77.8324 178.168 88.1162 178.168 99.8086V121.151H189.44H200.712V86.5666V51.9118L179.436 52.1935L158.09 52.4753L157.878 30.4287L157.737 8.45247H146.465H135.193V41.9098Z" fill="white"></path> <path d="M314.066 42.0506C313.995 42.4028 313.925 52.6161 313.855 64.8016L313.784 86.9891L292.438 87.2004L271.162 87.3413L271.303 120.658L271.514 153.904H282.786H294.058L294.199 133.477C294.269 122.207 294.34 112.487 294.41 111.853C294.41 110.726 296.031 110.585 315.404 110.444L336.328 110.233L336.539 76.4941C336.68 49.9395 336.539 42.6141 335.835 42.1211C334.708 41.4167 314.136 41.3463 314.066 42.0506Z" fill="white"></path> <path d="M43.9609 44.1635L41.8474 44.4452L41.636 55.7151L41.4951 66.9145H64.3914H87.2876L87.4285 92.4125L87.6398 117.981H120.751H153.863V106.711V95.4413L133.785 95.3004C122.724 95.3004 112.861 95.23 111.804 95.1595L109.832 95.0891V69.3798V43.6704L77.9882 43.8113C60.4462 43.8113 45.1585 44.0226 43.9609 44.1635Z" fill="white"></path> <path d="M45.4402 111.078C45.5811 122.63 45.5107 132.42 45.1584 132.913C44.8062 133.547 38.8884 133.759 23.3894 133.9C11.6947 133.97 1.90215 134.181 1.47945 134.463C1.1272 134.674 0.63405 148.691 0.4227 168.413L0 201.941L7.4677 202.434C11.5538 202.646 16.7671 202.857 18.951 202.857H22.9667L22.6144 180.388C22.4031 164.821 22.544 157.848 23.0371 157.496C23.4598 157.214 33.4637 157.003 45.2993 157.003C61.3619 157.003 66.857 156.791 67.3502 156.158C67.632 155.664 67.8433 140.661 67.7024 122.7L67.5615 90.1585H56.36H45.1584L45.4402 111.078Z" fill="white"></path> <path d="M222.551 91.3561C222.551 91.7082 222.551 101.851 222.551 113.966C222.551 131.223 222.411 136.013 221.706 136.295C220.015 136.928 212.97 137.21 196.696 137.281L180.422 137.351L180.352 144.888C180.211 155.101 178.943 183.557 178.45 186.798L178.027 189.404L189.722 189.615C198.951 189.756 201.487 189.615 201.769 188.911C201.98 188.347 202.121 181.797 202.121 174.33C202.121 166.019 202.403 160.525 202.825 160.243C203.178 160.032 212.9 159.82 224.313 159.891L245.095 159.961V125.377V90.863H233.823C227.624 90.863 222.551 91.0743 222.551 91.3561Z" fill="white"></path> <path d="M91.4441 136.788C91.3032 138.056 91.2328 143.479 91.3737 148.903L91.585 158.623L113.706 158.412C125.824 158.271 135.968 158.341 136.25 158.553C136.462 158.835 136.743 165.737 136.814 173.908C136.884 182.079 137.166 188.77 137.518 188.77C137.8 188.77 142.943 188.77 149.002 188.77H159.921L159.71 161.793L159.499 134.886L125.612 134.675L91.6555 134.534L91.4441 136.788Z" fill="white"></path> <path d="M316.109 135.097L313.432 135.309L313.291 156.228L313.08 177.148L286.802 177.359C266.653 177.5 260.454 177.711 260.242 178.416C260.101 178.838 259.819 184.121 259.538 189.967L259.115 200.744H297.51H335.976V179.613V158.482L353.8 158.341L371.553 158.13L371.764 152.847C371.905 149.959 371.764 144.606 371.553 141.014L371.06 134.463L344.923 134.675C330.481 134.816 317.518 134.956 316.109 135.097Z" fill="white"></path> <path d="M357.181 200.11C357.181 212.578 357.111 222.861 356.97 222.932C356.829 223.073 347.53 223.284 336.187 223.425C324.915 223.566 315.475 223.777 315.334 223.988C315.123 224.2 314.841 238.991 314.7 256.812L314.489 289.353L323.506 289.635C328.508 289.776 333.651 289.776 334.989 289.635L337.385 289.353L337.526 267.729L337.737 246.176L340.907 246.457C342.669 246.598 352.109 246.457 361.901 246.176L379.655 245.683V211.591V177.5H368.383H357.181V200.11Z" fill="white"></path> <path d="M46.0743 179.613C45.7925 180.106 45.0176 209.408 45.0176 220.959C45.0176 221.664 40.7201 221.875 26.912 222.016L8.73587 222.227L8.52452 233.638C8.45407 239.977 8.45407 245.119 8.52452 245.119C8.66542 245.189 21.9805 245.33 38.1135 245.612L67.5616 246.035L67.7025 224.622L67.9138 203.209L94.1917 202.998L120.399 202.857V190.883V178.909H83.4833C59.7416 178.909 46.3561 179.19 46.0743 179.613Z" fill="white"></path> <path d="M231.146 191.447L220.438 191.658V217.226C220.508 236.526 220.72 242.936 221.354 243.217C222.551 243.64 286.027 243.71 287.577 243.288C288.634 242.936 288.774 241.809 288.774 231.666V220.466L266.09 220.326L243.334 220.114L243.123 206.027C243.052 198.279 242.7 191.799 242.418 191.587C242.137 191.376 237.064 191.306 231.146 191.447Z" fill="white"></path> <path d="M135.334 250.543L135.546 289.142L146.606 289.353L157.737 289.564L157.878 262.658L158.09 235.821L179.788 235.892L201.416 236.033V224.059V212.014H168.305H135.193L135.334 250.543Z" fill="white"></path> <path d="M86.3718 226.665C86.1604 226.946 86.0195 236.385 86.0195 247.584C85.9491 258.854 85.9491 268.434 85.9491 268.856C85.8786 269.56 80.9471 269.772 64.955 269.913L43.9609 270.124L43.7495 304.074L43.6086 338.095H54.8806H66.1526L66.2935 315.696L66.5049 293.368L87.6399 293.016L108.775 292.664L108.986 259.347L109.127 226.101H97.9256C91.726 226.101 86.5127 226.312 86.3718 226.665Z" fill="white"></path> <path d="M179.577 293.368V327.53H196.767C206.137 327.53 215.859 327.741 218.254 327.952L222.551 328.445V349.787V371.2H233.823H245.095V338.095V304.99L223.819 304.849L202.473 304.638V288.437C202.403 279.492 202.332 269.279 202.262 265.686L202.121 259.206H190.849H179.577V293.368Z" fill="white"></path> <path d="M230.16 261.178L226.074 261.39V272.519C226.074 281.253 226.285 283.788 227.06 284.07C227.553 284.282 237.276 284.493 248.618 284.493C259.96 284.493 269.471 284.775 269.682 284.986C270.035 285.268 270.387 309.709 270.457 333.305V335.982H304.273H338.089V324.712V313.442H315.616H293.142L292.649 286.958L292.156 260.474L263.131 260.756C247.209 260.897 232.344 261.037 230.16 261.178Z" fill="white"></path> <path d="M90.5282 315.696C90.3168 316.612 90.1055 321.684 90.1055 326.966V336.687L107.366 336.827C116.876 336.898 126.599 336.968 128.994 337.039L133.432 337.18L133.996 339.927C134.348 341.406 134.489 350.985 134.348 361.198L134.137 379.653L143.295 379.723C167.882 380.005 195.076 380.005 198.458 379.794L202.121 379.442V368.172V356.902L179.788 357.184L157.385 357.465L157.174 335.771L157.033 314.147H123.992H90.9509L90.5282 315.696Z" fill="white"></path> </svg> 